<svg fill="blue" xmlns:dc="http://purl.org/dc/elements/1.1/" version="1.1" xmlns="http://www.w3.org/2000/svg" xmlns:xl="http://www.w3.org/1999/xlink" viewBox="0 0 55 49" width="55" height="49">
      <g id="Canvas_1" stroke-dasharray="none" stroke-opacity="1" fill-opacity="1" stroke="none">
        <path d="M 49.00931 1.0264994 C 49.474884 1.2398515 50.1186 2.0853548 50.210424 2.5973598 C 50.373454 3.538777 50.09939 4.2801065 49.35188 4.8774124 C 49.05507 5.114578 48.70355 5.3054064 48.522543 5.314956 C 48.35028 5.3355296 48.18451 5.386936 48.149285 5.4330955 C 48.06784 5.534199 47.44414 7.770687 47.40817 8.0876165 C 47.389057 8.255985 47.500735 8.328852 48.125335 8.550222 C 49.635365 9.072727 50.61624 9.765898 51.70955 11.053667 C 52.820345 12.363484 53.69505 14.16815 54.008615 15.808806 C 54.47984 18.350143 54.431036 22.126538 53.88317 25.103944 C 52.893244 30.478897 50.62913 34.926754 46.90208 38.877514 C 41.76695 44.31364 35.274176 47.268324 27.730174 47.59577 C 26.344694 47.64918 23.35537 47.390125 21.811864 47.074485 C 12.834765 45.23294 5.341909 38.9453 1.7605017 30.25264 C 1.3442596 29.252387 .65780545 27.198234 .6757921 27.03977 C .6802888 27.000153 .8964034 27.385823 1.15824 27.897062 C 5.228574 35.89284 13.889405 40.256564 22.526062 38.66877 C 26.98705 37.85094 31.323347 35.313573 34.23093 31.801476 C 35.506466 30.250907 35.635256 30.084956 36.193135 29.044796 C 38.14009 25.453757 38.82686 22.221263 38.83442 16.694679 C 38.838626 12.78281 39.038607 11.461267 39.81297 10.275142 C 39.981483 10.023414 40.09191 9.755062 40.060303 9.681253 C 40.0287 9.607444 39.652934 9.043146 39.222456 8.432512 C 38.80297 7.813093 38.400973 7.215723 38.343134 7.108842 C 38.24382 6.927031 38.204347 6.9225504 37.883805 7.016579 C 37.39862 7.152109 36.562033 7.037088 36.1032 6.764312 C 35.64437 6.491535 35.111206 5.728802 35.036873 5.2388456 C 34.898953 4.340405 35.185135 3.5803875 35.8898 3.0083133 C 37.714605 1.5501843 40.24187 3.502298 39.336477 5.666685 L 39.115626 6.20339 L 40.075896 7.60647 C 40.60681 8.389011 41.074517 9.023934 41.12386 9.029535 C 41.163334 9.034016 41.455395 8.926723 41.76944 8.801862 C 42.746805 8.381121 44.32928 8.089253 45.629066 8.086311 C 46.278397 8.089793 46.192454 8.230512 46.65926 6.407578 C 46.91658 5.37343 46.954553 5.1269485 46.84937 5.0849147 C 46.602904 4.9666544 46.02689 4.229153 45.88098 3.84142 C 45.675234 3.276357 45.790774 2.3464958 46.142167 1.8045448 C 46.72378 .9075224 47.97185 .56766546 49.00931 1.0264994 Z M 47.0963 1.8526545 C 46.607246 2.1984102 46.97127 3.0422615 47.525785 2.8243157 C 47.97599 2.6446887 48.083294 2.3157918 47.80347 1.9630173 C 47.593604 1.6984364 47.36775 1.662769 47.0963 1.8526545 Z M 36.35013 3.5320516 C 35.90305 3.772223 36.07532 4.544151 36.59836 4.603519 C 36.835206 4.6304024 37.137632 4.3437166 37.170233 4.056499 C 37.200586 3.7890894 36.9405 3.438555 36.693784 3.4105515 C 36.63457 3.4038306 36.478673 3.456357 36.35013 3.5320516 Z M 49.73867 20.139337 C 48.79903 20.403854 47.416294 20.256938 45.98409 19.753298 C 45.51289 19.589466 46.747604 20.512082 47.35784 20.771949 C 48.405166 21.231903 49.19603 21.221354 50.092447 20.721203 C 50.507676 20.49748 51.286415 19.713116 51.311147 19.495227 C 51.315643 19.45561 51.096036 19.541032 50.808223 19.698965 C 50.53028 19.858018 50.04822 20.054093 49.73867 20.139337 Z"/>
        <path d="M 22.548022 1.6644837 C 22.683935 1.6999738 23.120154 1.8197088 23.518024 1.9250592 C 30.08018 3.642972 35.223923 9.403151 36.322663 16.279168 C 36.63211 18.220307 36.640236 18.853224 36.359194 21.329238 C 36.12649 23.379377 36.050795 23.782083 35.744378 24.720374 C 34.61839 28.12371 33.04231 30.472794 30.42802 32.633813 C 28.630572 34.11511 26.928806 35.105686 24.959086 35.815055 C 22.489814 36.69845 19.479012 37.068955 17.051326 36.7934 C 13.074264 36.34198 8.929417 34.286514 6.178787 31.396167 C 5.3213305 30.496308 4.0688713 28.849398 3.4989787 27.881863 C 2.5764323 26.32256 1.6070228 23.062585 1.4297391 20.925783 C .9061348 14.706914 3.611447 8.57366 8.53123 4.858598 C 12.150739 2.1194926 16.656692 .9054992 21.063478 1.4458212 C 21.74329 1.5330154 22.41211 1.6289935 22.548022 1.6644837 Z M 17.643977 5.240889 C 14.249173 5.64806 11.259369 7.154525 8.928276 9.638606 C 4.194512 14.708993 3.8704343 22.848008 8.207316 28.055147 C 9.968577 30.151043 12.21964 31.630413 14.99773 32.517547 C 16.2909 32.925152 18.789915 33.18874 20.154782 33.052743 C 22.905378 32.773084 25.235365 31.88391 27.461035 30.240554 C 29.576777 28.685036 31.001586 26.699986 31.984297 23.942475 C 32.347926 22.940457 32.40139 22.645576 32.60911 20.903582 C 32.79797 19.2397 32.814455 18.830274 32.71938 17.906602 C 32.07798 11.8449 28.037037 7.112745 22.15894 5.5326665 C 21.993422 5.493816 21.106368 5.3830985 20.186336 5.298733 C 18.949383 5.188427 18.27157 5.171681 17.643977 5.240889 Z"/>
        <path d="M 21.164996 9.181719 C 25.549925 10.090731 28.888564 14.141272 29.09723 18.819645 C 29.149834 20.029415 28.802956 22.116753 28.37337 23.171475 C 27.65785 24.895957 26.608668 26.30168 25.180727 27.433685 C 24.125417 28.27694 23.348798 28.690372 22.096236 29.069846 C 20.512139 29.55213 19.665186 29.616503 17.800013 29.404796 C 16.408534 29.246855 16.047891 29.165793 15.358708 28.896966 C 13.350371 28.097203 12.09817 27.15254 10.88406 25.520014 C 8.565024 22.437895 8.177229 18.280899 9.868474 14.741089 C 11.914982 10.449102 16.467643 8.20715 21.164996 9.181719 Z M 17.734502 12.98557 C 15.567906 13.492024 13.851655 14.962474 13.060688 16.999406 C 12.720417 17.883696 12.570285 19.822828 12.779535 20.709301 C 13.398539 23.357697 15.64586 25.398416 18.241313 25.693015 C 21.359803 26.04698 24.217187 24.033935 25.07485 20.881028 C 25.608983 18.905229 25.0397 16.5233 23.66632 14.973013 C 23.044089 14.290455 21.90444 13.499009 21.106703 13.21786 C 20.260746 12.921206 18.514871 12.803292 17.734502 12.98557 Z"/>
        <path d="M 19.696028 16.839674 C 20.865402 17.193101 21.587323 18.318336 21.434685 19.57503 C 21.3144 20.634765 20.732158 21.361178 19.723188 21.70811 C 17.996184 22.304586 16.279152 20.8758 16.479503 19.02262 C 16.661618 17.418164 18.18912 16.377714 19.696028 16.839674 Z"/>
      </g>
    </svg>